<svg width="63" height="62" viewBox="0 0 63 62" fill="none" xmlns="http://www.w3.org/2000/svg">
<path d="M32.1712 5.16669H30.8795C29.4527 5.16669 28.2961 6.32328 28.2961 7.75002V15.5C28.2961 16.9268 29.4527 18.0834 30.8795 18.0834H32.1712C33.5979 18.0834 34.7545 16.9268 34.7545 15.5V7.75002C34.7545 6.32328 33.5979 5.16669 32.1712 5.16669Z" fill="#818CF8"/>
<path d="M13.7097 12.268L12.7963 13.1814C11.7874 14.1902 11.7874 15.8259 12.7963 16.8347L18.2764 22.3148C19.2853 23.3237 20.9209 23.3237 21.9298 22.3148L22.8431 21.4015C23.852 20.3926 23.852 18.7569 22.8431 17.7481L17.363 12.268C16.3542 11.2592 14.7185 11.2592 13.7097 12.268Z" fill="#E0E7FF"/>
<path d="M5.66663 30.3542V31.6459C5.66663 33.0726 6.82323 34.2292 8.24997 34.2292H16C17.4267 34.2292 18.5833 33.0726 18.5833 31.6459V30.3542C18.5833 28.9275 17.4267 27.7709 16 27.7709H8.24997C6.82323 27.7709 5.66663 28.9275 5.66663 30.3542Z" fill="#E0E7FF"/>
<path d="M12.7933 48.8031L13.7066 49.7164C14.7155 50.7253 16.3512 50.7253 17.36 49.7164L22.8401 44.2363C23.849 43.2275 23.849 41.5918 22.8401 40.5829L21.9268 39.6696C20.9179 38.6607 19.2822 38.6607 18.2734 39.6696L12.7933 45.1497C11.7844 46.1585 11.7844 47.7942 12.7933 48.8031Z" fill="#C7D2FE"/>
<path d="M30.8265 56.8334H32.1182C33.5449 56.8334 34.7015 55.6768 34.7015 54.25V46.5C34.7015 45.0733 33.5449 43.9167 32.1182 43.9167H30.8265C29.3998 43.9167 28.2432 45.0733 28.2432 46.5V54.25C28.2432 55.6768 29.3998 56.8334 30.8265 56.8334Z" fill="#C7D2FE"/>
<path d="M49.3207 49.7395L50.2341 48.8262C51.243 47.8173 51.243 46.1817 50.2341 45.1728L44.754 39.6927C43.7451 38.6839 42.1095 38.6839 41.1006 39.6927L40.1873 40.6061C39.1784 41.6149 39.1784 43.2506 40.1873 44.2595L45.6674 49.7395C46.6762 50.7484 48.3119 50.7484 49.3207 49.7395Z" fill="#C7D2FE"/>
<path d="M57.3335 31.6711V30.3794C57.3335 28.9527 56.1769 27.7961 54.7502 27.7961H47.0001C45.5734 27.7961 44.4168 28.9527 44.4168 30.3794V31.6711C44.4168 33.0978 45.5734 34.2544 47.0001 34.2544H54.7502C56.1769 34.2544 57.3335 33.0978 57.3335 31.6711Z" fill="#818CF8"/>
<path d="M50.2447 13.2096L49.3313 12.2962C48.3225 11.2874 46.6868 11.2874 45.6779 12.2962L40.1979 17.7763C39.189 18.7852 39.189 20.4208 40.1979 21.4297L41.1112 22.343C42.1201 23.3519 43.7557 23.3519 44.7646 22.343L50.2447 16.863C51.2535 15.8541 51.2535 14.2184 50.2447 13.2096Z" fill="#818CF8"/>
</svg>
