<svg width="115" height="27" viewBox="0 0 115 27" fill="none" xmlns="http://www.w3.org/2000/svg">
<mask id="path-1-outside-1_47_683" maskUnits="userSpaceOnUse" x="0" y="0" width="115" height="27" fill="black">
<rect fill="white" width="115" height="27"/>
<path d="M13.0213 23.6944C10.9611 23.6944 9.07453 23.1968 7.36157 22.2014C5.6486 21.206 4.28286 19.8634 3.26435 18.1736C2.26898 16.4838 1.77129 14.6204 1.77129 12.5833C1.77129 10.5231 2.26898 8.65972 3.26435 6.99305C4.28286 5.30324 5.6486 3.96065 7.36157 2.96528C9.07453 1.96991 10.9611 1.47222 13.0213 1.47222C14.4565 1.47222 15.8106 1.71528 17.0838 2.20139C18.3801 2.66435 19.5259 3.3588 20.5213 4.28472L18.9588 10.4306C18.3801 9.48148 17.6046 8.65972 16.6324 7.96528C15.6833 7.24768 14.5606 6.88889 13.2643 6.88889C12.1764 6.88889 11.2042 7.14352 10.3477 7.65278C9.4912 8.16204 8.8199 8.84491 8.33379 9.70139C7.84768 10.5579 7.60462 11.5185 7.60462 12.5833C7.60462 13.625 7.84768 14.5856 8.33379 15.4653C8.8199 16.3218 9.4912 17.0046 10.3477 17.5139C11.2042 18.0231 12.1764 18.2778 13.2643 18.2778C14.5606 18.2778 15.6833 17.9306 16.6324 17.2361C17.6046 16.5185 18.3801 15.6852 18.9588 14.7361L20.5213 20.8819C19.5259 21.8079 18.3801 22.5139 17.0838 23C15.8106 23.463 14.4565 23.6944 13.0213 23.6944ZM33.2709 23.6944C31.2107 23.6944 29.3241 23.1968 27.6112 22.2014C25.8982 21.206 24.5325 19.8634 23.514 18.1736C22.5186 16.4838 22.0209 14.6204 22.0209 12.5833C22.0209 10.5231 22.5186 8.65972 23.514 6.99305C24.5325 5.30324 25.8982 3.96065 27.6112 2.96528C29.3241 1.96991 31.2107 1.47222 33.2709 1.47222C35.3542 1.47222 37.2408 1.96991 38.9306 2.96528C40.6436 3.96065 41.9978 5.30324 42.9931 6.99305C44.0116 8.65972 44.5209 10.5231 44.5209 12.5833C44.5209 14.6204 44.0116 16.4838 42.9931 18.1736C41.9978 19.8634 40.6436 21.206 38.9306 22.2014C37.2408 23.1968 35.3542 23.6944 33.2709 23.6944ZM33.2709 18.2778C34.3126 18.2778 35.2501 18.0231 36.0834 17.5139C36.9399 17.0046 37.6112 16.3218 38.0973 15.4653C38.6065 14.5856 38.8612 13.625 38.8612 12.5833C38.8612 11.5185 38.6065 10.5579 38.0973 9.70139C37.6112 8.84491 36.9399 8.16204 36.0834 7.65278C35.2501 7.14352 34.3126 6.88889 33.2709 6.88889C32.2292 6.88889 31.2802 7.14352 30.4237 7.65278C29.5903 8.16204 28.919 8.84491 28.4098 9.70139C27.9237 10.5579 27.6806 11.5185 27.6806 12.5833C27.6806 13.625 27.9237 14.5856 28.4098 15.4653C28.919 16.3218 29.5903 17.0046 30.4237 17.5139C31.2802 18.0231 32.2292 18.2778 33.2709 18.2778ZM47.4626 23V2.16667H52.8792V4.45833C53.62 3.48611 54.5343 2.74537 55.6223 2.23611C56.7103 1.72685 57.8792 1.47222 59.1292 1.47222C60.6107 1.47222 61.988 1.83102 63.2612 2.54861C64.5575 3.24306 65.5991 4.27315 66.3862 5.63889C67.1964 6.98148 67.6015 8.61343 67.6015 10.5347V23H61.5598V11.3333C61.5598 10.1759 61.2126 9.14583 60.5181 8.24306C59.8237 7.34028 58.8283 6.88889 57.532 6.88889C56.4903 6.88889 55.5528 7.24768 54.7195 7.96528C53.9093 8.65972 53.5042 9.75926 53.5042 11.2639V23H47.4626ZM79.4939 24.0417L68.0702 2.16667H74.7716L78.0355 8.86805C78.3364 9.44676 78.6142 10.0255 78.8689 10.6042C79.1235 11.1597 79.3781 11.7963 79.6327 12.5139C79.8874 11.7963 80.142 11.1597 80.3966 10.6042C80.6513 10.0255 80.929 9.44676 81.23 8.86805L84.4939 2.16667H90.9175L79.4939 24.0417ZM101.979 23.6944C99.9185 23.6944 98.032 23.1968 96.319 22.2014C94.606 21.206 93.2403 19.8634 92.2218 18.1736C91.2264 16.4838 90.7287 14.6204 90.7287 12.5833C90.7287 10.5231 91.2264 8.65972 92.2218 6.99305C93.2403 5.30324 94.606 3.96065 96.319 2.96528C98.032 1.96991 99.9185 1.47222 101.979 1.47222C104.062 1.47222 105.949 1.96991 107.638 2.96528C109.351 3.96065 110.706 5.30324 111.701 6.99305C112.719 8.65972 113.229 10.5231 113.229 12.5833C113.229 14.6204 112.719 16.4838 111.701 18.1736C110.706 19.8634 109.351 21.206 107.638 22.2014C105.949 23.1968 104.062 23.6944 101.979 23.6944ZM101.979 18.2778C103.02 18.2778 103.958 18.0231 104.791 17.5139C105.648 17.0046 106.319 16.3218 106.805 15.4653C107.314 14.5856 107.569 13.625 107.569 12.5833C107.569 11.5185 107.314 10.5579 106.805 9.70139C106.319 8.84491 105.648 8.16204 104.791 7.65278C103.958 7.14352 103.02 6.88889 101.979 6.88889C100.937 6.88889 99.988 7.14352 99.1315 7.65278C98.2982 8.16204 97.6269 8.84491 97.1176 9.70139C96.6315 10.5579 96.3884 11.5185 96.3884 12.5833C96.3884 13.625 96.6315 14.5856 97.1176 15.4653C97.6269 16.3218 98.2982 17.0046 99.1315 17.5139C99.988 18.0231 100.937 18.2778 101.979 18.2778Z"/>
</mask>
<path d="M13.0213 23.6944C10.9611 23.6944 9.07453 23.1968 7.36157 22.2014C5.6486 21.206 4.28286 19.8634 3.26435 18.1736C2.26898 16.4838 1.77129 14.6204 1.77129 12.5833C1.77129 10.5231 2.26898 8.65972 3.26435 6.99305C4.28286 5.30324 5.6486 3.96065 7.36157 2.96528C9.07453 1.96991 10.9611 1.47222 13.0213 1.47222C14.4565 1.47222 15.8106 1.71528 17.0838 2.20139C18.3801 2.66435 19.5259 3.3588 20.5213 4.28472L18.9588 10.4306C18.3801 9.48148 17.6046 8.65972 16.6324 7.96528C15.6833 7.24768 14.5606 6.88889 13.2643 6.88889C12.1764 6.88889 11.2042 7.14352 10.3477 7.65278C9.4912 8.16204 8.8199 8.84491 8.33379 9.70139C7.84768 10.5579 7.60462 11.5185 7.60462 12.5833C7.60462 13.625 7.84768 14.5856 8.33379 15.4653C8.8199 16.3218 9.4912 17.0046 10.3477 17.5139C11.2042 18.0231 12.1764 18.2778 13.2643 18.2778C14.5606 18.2778 15.6833 17.9306 16.6324 17.2361C17.6046 16.5185 18.3801 15.6852 18.9588 14.7361L20.5213 20.8819C19.5259 21.8079 18.3801 22.5139 17.0838 23C15.8106 23.463 14.4565 23.6944 13.0213 23.6944ZM33.2709 23.6944C31.2107 23.6944 29.3241 23.1968 27.6112 22.2014C25.8982 21.206 24.5325 19.8634 23.514 18.1736C22.5186 16.4838 22.0209 14.6204 22.0209 12.5833C22.0209 10.5231 22.5186 8.65972 23.514 6.99305C24.5325 5.30324 25.8982 3.96065 27.6112 2.96528C29.3241 1.96991 31.2107 1.47222 33.2709 1.47222C35.3542 1.47222 37.2408 1.96991 38.9306 2.96528C40.6436 3.96065 41.9978 5.30324 42.9931 6.99305C44.0116 8.65972 44.5209 10.5231 44.5209 12.5833C44.5209 14.6204 44.0116 16.4838 42.9931 18.1736C41.9978 19.8634 40.6436 21.206 38.9306 22.2014C37.2408 23.1968 35.3542 23.6944 33.2709 23.6944ZM33.2709 18.2778C34.3126 18.2778 35.2501 18.0231 36.0834 17.5139C36.9399 17.0046 37.6112 16.3218 38.0973 15.4653C38.6065 14.5856 38.8612 13.625 38.8612 12.5833C38.8612 11.5185 38.6065 10.5579 38.0973 9.70139C37.6112 8.84491 36.9399 8.16204 36.0834 7.65278C35.2501 7.14352 34.3126 6.88889 33.2709 6.88889C32.2292 6.88889 31.2802 7.14352 30.4237 7.65278C29.5903 8.16204 28.919 8.84491 28.4098 9.70139C27.9237 10.5579 27.6806 11.5185 27.6806 12.5833C27.6806 13.625 27.9237 14.5856 28.4098 15.4653C28.919 16.3218 29.5903 17.0046 30.4237 17.5139C31.2802 18.0231 32.2292 18.2778 33.2709 18.2778ZM47.4626 23V2.16667H52.8792V4.45833C53.62 3.48611 54.5343 2.74537 55.6223 2.23611C56.7103 1.72685 57.8792 1.47222 59.1292 1.47222C60.6107 1.47222 61.988 1.83102 63.2612 2.54861C64.5575 3.24306 65.5991 4.27315 66.3862 5.63889C67.1964 6.98148 67.6015 8.61343 67.6015 10.5347V23H61.5598V11.3333C61.5598 10.1759 61.2126 9.14583 60.5181 8.24306C59.8237 7.34028 58.8283 6.88889 57.532 6.88889C56.4903 6.88889 55.5528 7.24768 54.7195 7.96528C53.9093 8.65972 53.5042 9.75926 53.5042 11.2639V23H47.4626ZM79.4939 24.0417L68.0702 2.16667H74.7716L78.0355 8.86805C78.3364 9.44676 78.6142 10.0255 78.8689 10.6042C79.1235 11.1597 79.3781 11.7963 79.6327 12.5139C79.8874 11.7963 80.142 11.1597 80.3966 10.6042C80.6513 10.0255 80.929 9.44676 81.23 8.86805L84.4939 2.16667H90.9175L79.4939 24.0417ZM101.979 23.6944C99.9185 23.6944 98.032 23.1968 96.319 22.2014C94.606 21.206 93.2403 19.8634 92.2218 18.1736C91.2264 16.4838 90.7287 14.6204 90.7287 12.5833C90.7287 10.5231 91.2264 8.65972 92.2218 6.99305C93.2403 5.30324 94.606 3.96065 96.319 2.96528C98.032 1.96991 99.9185 1.47222 101.979 1.47222C104.062 1.47222 105.949 1.96991 107.638 2.96528C109.351 3.96065 110.706 5.30324 111.701 6.99305C112.719 8.65972 113.229 10.5231 113.229 12.5833C113.229 14.6204 112.719 16.4838 111.701 18.1736C110.706 19.8634 109.351 21.206 107.638 22.2014C105.949 23.1968 104.062 23.6944 101.979 23.6944ZM101.979 18.2778C103.02 18.2778 103.958 18.0231 104.791 17.5139C105.648 17.0046 106.319 16.3218 106.805 15.4653C107.314 14.5856 107.569 13.625 107.569 12.5833C107.569 11.5185 107.314 10.5579 106.805 9.70139C106.319 8.84491 105.648 8.16204 104.791 7.65278C103.958 7.14352 103.02 6.88889 101.979 6.88889C100.937 6.88889 99.988 7.14352 99.1315 7.65278C98.2982 8.16204 97.6269 8.84491 97.1176 9.70139C96.6315 10.5579 96.3884 11.5185 96.3884 12.5833C96.3884 13.625 96.6315 14.5856 97.1176 15.4653C97.6269 16.3218 98.2982 17.0046 99.1315 17.5139C99.988 18.0231 100.937 18.2778 101.979 18.2778Z" fill="#312E81"/>
<path d="M7.36157 22.2014L7.86399 21.3368L7.36157 22.2014ZM3.26435 18.1736L2.40267 18.6812L2.40789 18.6898L3.26435 18.1736ZM3.26435 6.99306L2.40788 6.47683L2.4058 6.48031L3.26435 6.99306ZM7.36157 2.96528L6.85915 2.10065H6.85915L7.36157 2.96528ZM17.0838 2.20139L16.7271 3.13561L16.7372 3.13948L16.7475 3.14313L17.0838 2.20139ZM20.5213 4.28472L21.4905 4.53112L21.6366 3.95642L21.2024 3.55253L20.5213 4.28472ZM18.9588 10.4306L18.105 10.9512L19.3423 12.9804L19.928 10.677L18.9588 10.4306ZM16.6324 7.96528L16.0293 8.76294L16.0401 8.77112L16.0512 8.77901L16.6324 7.96528ZM8.33379 9.70139L9.20348 10.195L8.33379 9.70139ZM8.33379 15.4653L7.45849 15.949L7.4641 15.9589L8.33379 15.4653ZM10.3477 17.5139L10.8588 16.6544L10.3477 17.5139ZM16.6324 17.2361L17.2229 18.0431L17.2263 18.0407L16.6324 17.2361ZM18.9588 14.7361L19.928 14.4897L19.3423 12.1863L18.105 14.2155L18.9588 14.7361ZM20.5213 20.8819L21.2024 21.6141L21.6366 21.2102L21.4905 20.6355L20.5213 20.8819ZM17.0838 23L17.4256 23.9398L17.4349 23.9363L17.0838 23ZM13.0213 22.6944C11.1302 22.6944 9.41813 22.2398 7.86399 21.3368L6.85915 23.066C8.73094 24.1537 10.792 24.6944 13.0213 24.6944V22.6944ZM7.86399 21.3368C6.29583 20.4255 5.05211 19.2025 4.1208 17.6574L2.40789 18.6898C3.51361 20.5243 5.00138 21.9865 6.85915 23.066L7.86399 21.3368ZM4.12598 17.6661C3.22479 16.1362 2.77129 14.4491 2.77129 12.5833H0.77129C0.77129 14.7917 1.31316 16.8314 2.40271 18.6811L4.12598 17.6661ZM2.77129 12.5833C2.77129 10.6922 3.22582 9.00786 4.12289 7.5058L2.4058 6.48031C1.31213 8.31158 0.77129 10.3541 0.77129 12.5833H2.77129ZM4.1208 7.50928C5.05211 5.96414 6.29583 4.74113 7.86399 3.8299L6.85915 2.10065C5.00138 3.18017 3.51361 4.64234 2.40789 6.47684L4.1208 7.50928ZM7.86399 3.8299C9.41813 2.92682 11.1302 2.47222 13.0213 2.47222V0.472222C10.792 0.472222 8.73094 1.01299 6.85915 2.10065L7.86399 3.8299ZM13.0213 2.47222C14.3411 2.47222 15.5738 2.69526 16.7271 3.13561L17.4405 1.26717C16.0475 0.735294 14.5718 0.472222 13.0213 0.472222V2.47222ZM16.7475 3.14313C17.9174 3.56098 18.9456 4.18472 19.8402 5.01691L21.2024 3.55253C20.1063 2.53287 18.8427 1.76772 17.4201 1.25965L16.7475 3.14313ZM19.5521 4.03832L17.9896 10.1842L19.928 10.677L21.4905 4.53112L19.5521 4.03832ZM19.8126 9.90995C19.1586 8.83739 18.2872 7.9184 17.2136 7.15154L16.0512 8.77901C16.922 9.40104 17.6016 10.1256 18.105 10.9512L19.8126 9.90995ZM17.2355 7.16762C16.097 6.3068 14.7577 5.88889 13.2643 5.88889V7.88889C14.3636 7.88889 15.2696 8.18857 16.0293 8.76294L17.2355 7.16762ZM13.2643 5.88889C12.0135 5.88889 10.8617 6.1837 9.8366 6.79324L10.8588 8.51231C11.5466 8.10333 12.3392 7.88889 13.2643 7.88889V5.88889ZM9.8366 6.79324C8.83269 7.39017 8.037 8.19839 7.4641 9.20778L9.20348 10.195C9.6028 9.49142 10.1497 8.93391 10.8588 8.51231L9.8366 6.79324ZM7.4641 9.20778C6.8857 10.2269 6.60462 11.36 6.60462 12.5833H8.60462C8.60462 11.6771 8.80965 10.8889 9.20348 10.195L7.4641 9.20778ZM6.60462 12.5833C6.60462 13.7878 6.88756 14.9157 7.45855 15.949L9.20903 14.9816C8.8078 14.2556 8.60462 13.4622 8.60462 12.5833H6.60462ZM7.4641 15.9589C8.037 16.9683 8.83269 17.7765 9.8366 18.3734L10.8588 16.6544C10.1497 16.2328 9.6028 15.6752 9.20348 14.9717L7.4641 15.9589ZM9.8366 18.3734C10.8617 18.983 12.0135 19.2778 13.2643 19.2778V17.2778C12.3392 17.2778 11.5466 17.0633 10.8588 16.6544L9.8366 18.3734ZM13.2643 19.2778C14.7501 19.2778 16.0849 18.8758 17.2229 18.0431L16.0419 16.4291C15.2817 16.9853 14.3712 17.2778 13.2643 17.2778V19.2778ZM17.2263 18.0407C18.2936 17.2529 19.1608 16.3257 19.8126 15.2567L18.105 14.2155C17.5994 15.0447 16.9157 15.7841 16.0385 16.4315L17.2263 18.0407ZM17.9896 14.9825L19.5521 21.1283L21.4905 20.6355L19.928 14.4897L17.9896 14.9825ZM19.8402 20.1498C18.9422 20.9851 17.909 21.6225 16.7327 22.0637L17.4349 23.9363C18.8512 23.4052 20.1096 22.6307 21.2024 21.6141L19.8402 20.1498ZM16.742 22.0602C15.5848 22.481 14.3469 22.6944 13.0213 22.6944V24.6944C14.566 24.6944 16.0365 24.4449 17.4255 23.9398L16.742 22.0602ZM27.6112 22.2014L28.1136 21.3368L27.6112 22.2014ZM23.514 18.1736L22.6523 18.6812L22.6575 18.6898L23.514 18.1736ZM23.514 6.99306L22.6575 6.47683L22.6554 6.48031L23.514 6.99306ZM27.6112 2.96528L27.1088 2.10065H27.1088L27.6112 2.96528ZM38.9306 2.96528L38.4231 3.82692L38.4282 3.8299L38.9306 2.96528ZM42.9931 6.99306L42.1315 7.50059L42.1356 7.50758L42.1398 7.51451L42.9931 6.99306ZM42.9931 18.1736L42.1366 17.6574L42.1315 17.6661L42.9931 18.1736ZM38.9306 22.2014L38.4282 21.3367L38.4231 21.3398L38.9306 22.2014ZM36.0834 17.5139L35.5723 16.6543L35.562 16.6606L36.0834 17.5139ZM38.0973 15.4653L37.2318 14.9642L37.2276 14.9717L38.0973 15.4653ZM38.0973 9.70139L37.2276 10.195L37.2326 10.2038L37.2378 10.2125L38.0973 9.70139ZM36.0834 7.65278L35.5619 8.50612L35.5723 8.51231L36.0834 7.65278ZM30.4237 7.65278L29.9126 6.79318L29.9022 6.79949L30.4237 7.65278ZM28.4098 9.70139L27.5503 9.19031L27.5451 9.199L27.5401 9.20778L28.4098 9.70139ZM28.4098 15.4653L27.5345 15.949L27.5422 15.9628L27.5503 15.9764L28.4098 15.4653ZM30.4237 17.5139L29.9022 18.3672L29.9126 18.3734L30.4237 17.5139ZM33.2709 22.6944C31.3799 22.6944 29.6677 22.2398 28.1136 21.3368L27.1088 23.066C28.9805 24.1537 31.0416 24.6944 33.2709 24.6944V22.6944ZM28.1136 21.3368C26.5454 20.4255 25.3017 19.2025 24.3704 17.6574L22.6575 18.6898C23.7632 20.5243 25.251 21.9865 27.1088 23.066L28.1136 21.3368ZM24.3756 17.6661C23.4744 16.1362 23.0209 14.4491 23.0209 12.5833H21.0209C21.0209 14.7917 21.5628 16.8314 22.6523 18.6811L24.3756 17.6661ZM23.0209 12.5833C23.0209 10.6922 23.4754 9.00786 24.3725 7.5058L22.6554 6.48031C21.5617 8.31158 21.0209 10.3541 21.0209 12.5833H23.0209ZM24.3704 7.50928C25.3017 5.96414 26.5454 4.74113 28.1136 3.8299L27.1088 2.10065C25.251 3.18017 23.7632 4.64234 22.6575 6.47684L24.3704 7.50928ZM28.1136 3.8299C29.6677 2.92682 31.3799 2.47222 33.2709 2.47222V0.472222C31.0416 0.472222 28.9805 1.01299 27.1088 2.10065L28.1136 3.8299ZM33.2709 2.47222C35.1873 2.47222 36.8967 2.92782 38.4231 3.82691L39.4382 2.10365C37.5849 1.012 35.5212 0.472222 33.2709 0.472222V2.47222ZM38.4282 3.8299C39.9944 4.73996 41.2242 5.96023 42.1315 7.50059L43.8548 6.48552C42.7713 4.64625 41.2928 3.18133 39.433 2.10065L38.4282 3.8299ZM42.1398 7.51451C43.0571 9.01542 43.5209 10.6966 43.5209 12.5833H45.5209C45.5209 10.3497 44.9662 8.30402 43.8464 6.4716L42.1398 7.51451ZM43.5209 12.5833C43.5209 14.4446 43.0581 16.1286 42.1367 17.6574L43.8496 18.6898C44.9652 16.839 45.5209 14.7961 45.5209 12.5833H43.5209ZM42.1315 17.6661C41.2242 19.2064 39.9944 20.4267 38.4282 21.3368L39.433 23.066C41.2928 21.9853 42.7713 20.5204 43.8548 18.6811L42.1315 17.6661ZM38.4231 21.3398C36.8967 22.2388 35.1873 22.6944 33.2709 22.6944V24.6944C35.5212 24.6944 37.5849 24.1547 39.4382 23.063L38.4231 21.3398ZM33.2709 19.2778C34.4838 19.2778 35.604 18.9788 36.6049 18.3672L35.562 16.6606C34.8962 17.0675 34.1413 17.2778 33.2709 17.2778V19.2778ZM36.5945 18.3734C37.5984 17.7765 38.3941 16.9683 38.967 15.9589L37.2276 14.9717C36.8283 15.6752 36.2814 16.2328 35.5723 16.6544L36.5945 18.3734ZM38.9627 15.9663C39.5624 14.9305 39.8612 13.7964 39.8612 12.5833H37.8612C37.8612 13.4536 37.6507 14.2408 37.2319 14.9642L38.9627 15.9663ZM39.8612 12.5833C39.8612 11.3514 39.5644 10.2121 38.9568 9.19031L37.2378 10.2125C37.6487 10.9037 37.8612 11.6856 37.8612 12.5833H39.8612ZM38.967 9.20778C38.3941 8.19839 37.5984 7.39017 36.5945 6.79324L35.5723 8.51231C36.2814 8.93391 36.8283 9.49142 37.2276 10.195L38.967 9.20778ZM36.6049 6.79949C35.604 6.18784 34.4838 5.88889 33.2709 5.88889V7.88889C34.1413 7.88889 34.8962 8.09919 35.562 8.50606L36.6049 6.79949ZM33.2709 5.88889C32.0579 5.88889 30.9309 6.18778 29.9126 6.79324L30.9348 8.51231C31.6294 8.09925 32.4006 7.88889 33.2709 7.88889V5.88889ZM29.9022 6.79949C28.9271 7.39539 28.1409 8.19691 27.5503 9.19031L29.2693 10.2125C29.6972 9.49291 30.2536 8.92868 30.9451 8.50606L29.9022 6.79949ZM27.5401 9.20778C26.9617 10.2269 26.6806 11.36 26.6806 12.5833H28.6806C28.6806 11.6771 28.8857 10.8889 29.2795 10.195L27.5401 9.20778ZM26.6806 12.5833C26.6806 13.7878 26.9636 14.9157 27.5345 15.949L29.285 14.9816C28.8838 14.2556 28.6806 13.4622 28.6806 12.5833H26.6806ZM27.5503 15.9764C28.1409 16.9698 28.9271 17.7713 29.9022 18.3672L30.9451 16.6606C30.2536 16.238 29.6972 15.6738 29.2693 14.9542L27.5503 15.9764ZM29.9126 18.3734C30.9309 18.9789 32.0579 19.2778 33.2709 19.2778V17.2778C32.4006 17.2778 31.6294 17.0674 30.9348 16.6544L29.9126 18.3734ZM47.4626 23H46.4626V24H47.4626V23ZM47.4626 2.16667V1.16667H46.4626V2.16667H47.4626ZM52.8792 2.16667H53.8792V1.16667H52.8792V2.16667ZM52.8792 4.45833H51.8792V7.42088L53.6747 5.06438L52.8792 4.45833ZM63.2612 2.54861L62.7702 3.41976L62.7795 3.42503L62.789 3.43009L63.2612 2.54861ZM66.3862 5.63889L65.5197 6.13819L65.5248 6.14692L65.53 6.15555L66.3862 5.63889ZM67.6015 23V24H68.6015V23H67.6015ZM61.5598 23H60.5598V24H61.5598V23ZM60.5181 8.24306L61.3107 7.63334L60.5181 8.24306ZM54.7195 7.96528L55.3703 8.72453L55.372 8.72305L54.7195 7.96528ZM53.5042 23V24H54.5042V23H53.5042ZM48.4626 23V2.16667H46.4626V23H48.4626ZM47.4626 3.16667H52.8792V1.16667H47.4626V3.16667ZM51.8792 2.16667V4.45833H53.8792V2.16667H51.8792ZM53.6747 5.06438C54.3194 4.21822 55.1071 3.58139 56.0462 3.1418L55.1983 1.33042C53.9615 1.90935 52.9206 2.754 52.0838 3.85229L53.6747 5.06438ZM56.0462 3.1418C56.9961 2.69719 58.0196 2.47222 59.1292 2.47222V0.472222C57.7388 0.472222 56.4244 0.756511 55.1983 1.33042L56.0462 3.1418ZM59.1292 2.47222C60.4412 2.47222 61.649 2.78784 62.7702 3.41976L63.7522 1.67746C62.327 0.874193 60.7803 0.472222 59.1292 0.472222V2.47222ZM62.789 3.43009C63.9089 4.03005 64.8189 4.92202 65.5197 6.13819L67.2526 5.13959C66.3794 3.62427 65.2061 2.45607 63.7334 1.66713L62.789 3.43009ZM65.53 6.15555C66.227 7.31055 66.6015 8.75458 66.6015 10.5347H68.6015C68.6015 8.47227 68.1658 6.65241 67.2424 5.12222L65.53 6.15555ZM66.6015 10.5347V23H68.6015V10.5347H66.6015ZM67.6015 22H61.5598V24H67.6015V22ZM62.5598 23V11.3333H60.5598V23H62.5598ZM62.5598 11.3333C62.5598 9.95924 62.142 8.71397 61.3107 7.63334L59.7255 8.85277C60.2831 9.5777 60.5598 10.3926 60.5598 11.3333H62.5598ZM61.3107 7.63334C60.3991 6.44824 59.09 5.88889 57.532 5.88889V7.88889C58.5666 7.88889 59.2482 8.23232 59.7255 8.85277L61.3107 7.63334ZM57.532 5.88889C56.2367 5.88889 55.0708 6.3431 54.067 7.20751L55.372 8.72305C56.0349 8.15226 56.744 7.88889 57.532 7.88889V5.88889ZM54.0687 7.20602C52.9573 8.15863 52.5042 9.59155 52.5042 11.2639H54.5042C54.5042 9.92696 54.8613 9.16081 55.3703 8.72453L54.0687 7.20602ZM52.5042 11.2639V23H54.5042V11.2639H52.5042ZM53.5042 22H47.4626V24H53.5042V22ZM79.4939 24.0417L78.6074 24.5046L79.4939 26.2019L80.3803 24.5046L79.4939 24.0417ZM68.0702 2.16667V1.16667H66.4199L67.1838 2.62957L68.0702 2.16667ZM74.7716 2.16667L75.6707 1.72879L75.3969 1.16667H74.7716V2.16667ZM78.0355 8.86805L77.1365 9.30593L77.1422 9.31775L77.1483 9.32941L78.0355 8.86805ZM78.8689 10.6042L77.9535 11.0069L77.9566 11.0139L77.9598 11.0208L78.8689 10.6042ZM79.6327 12.5139L78.6903 12.8483L79.6327 15.5042L80.5752 12.8483L79.6327 12.5139ZM80.3966 10.6042L81.3057 11.0208L81.3089 11.0139L81.3119 11.0069L80.3966 10.6042ZM81.23 8.86805L82.1172 9.32941L82.1232 9.31775L82.129 9.30593L81.23 8.86805ZM84.4939 2.16667V1.16667H83.8686L83.5948 1.72879L84.4939 2.16667ZM90.9175 2.16667L91.8039 2.62957L92.5678 1.16667H90.9175V2.16667ZM80.3803 23.5788L68.9566 1.70376L67.1838 2.62957L78.6074 24.5046L80.3803 23.5788ZM68.0702 3.16667H74.7716V1.16667H68.0702V3.16667ZM73.8726 2.60454L77.1365 9.30593L78.9346 8.43018L75.6707 1.72879L73.8726 2.60454ZM77.1483 9.32941C77.4395 9.88949 77.7079 10.4487 77.9535 11.0069L79.7842 10.2014C79.5205 9.60227 79.2333 9.00403 78.9227 8.4067L77.1483 9.32941ZM77.9598 11.0208C78.1995 11.5439 78.4433 12.1521 78.6903 12.8483L80.5752 12.1795C80.3129 11.4404 80.0474 10.7756 79.7779 10.1875L77.9598 11.0208ZM80.5752 12.8483C80.8222 12.1521 81.066 11.5439 81.3057 11.0208L79.4876 10.1875C79.218 10.7756 78.9526 11.4404 78.6903 12.1795L80.5752 12.8483ZM81.3119 11.0069C81.5576 10.4487 81.8259 9.88949 82.1172 9.32941L80.3427 8.4067C80.0321 9.00403 79.7449 9.60227 79.4813 10.2014L81.3119 11.0069ZM82.129 9.30593L85.3929 2.60454L83.5948 1.72879L80.3309 8.43018L82.129 9.30593ZM84.4939 3.16667H90.9175V1.16667H84.4939V3.16667ZM90.0311 1.70376L78.6074 23.5788L80.3803 24.5046L91.8039 2.62957L90.0311 1.70376ZM96.319 22.2014L96.8214 21.3368L96.319 22.2014ZM92.2218 18.1736L91.3601 18.6812L91.3653 18.6898L92.2218 18.1736ZM92.2218 6.99306L91.3653 6.47683L91.3632 6.48031L92.2218 6.99306ZM96.319 2.96528L95.8166 2.10065L96.319 2.96528ZM107.638 2.96528L107.131 3.82692L107.136 3.8299L107.638 2.96528ZM111.701 6.99306L110.839 7.50059L110.843 7.50758L110.848 7.51451L111.701 6.99306ZM111.701 18.1736L110.844 17.6574L110.839 17.6661L111.701 18.1736ZM107.638 22.2014L107.136 21.3367L107.131 21.3398L107.638 22.2014ZM104.791 17.5139L104.28 16.6543L104.27 16.6606L104.791 17.5139ZM106.805 15.4653L105.94 14.9642L105.935 14.9717L106.805 15.4653ZM106.805 9.70139L105.935 10.195L105.94 10.2038L105.946 10.2125L106.805 9.70139ZM104.791 7.65278L104.27 8.50612L104.28 8.51231L104.791 7.65278ZM99.1315 7.65278L98.6204 6.79318L98.61 6.79949L99.1315 7.65278ZM97.1176 9.70139L96.2581 9.19031L96.2529 9.199L96.2479 9.20778L97.1176 9.70139ZM97.1176 15.4653L96.2424 15.949L96.25 15.9628L96.2581 15.9764L97.1176 15.4653ZM99.1315 17.5139L98.61 18.3672L98.6204 18.3734L99.1315 17.5139ZM101.979 22.6944C100.088 22.6944 98.3755 22.2398 96.8214 21.3368L95.8166 23.066C97.6884 24.1537 99.7494 24.6944 101.979 24.6944V22.6944ZM96.8214 21.3368C95.2533 20.4255 94.0095 19.2025 93.0782 17.6574L91.3653 18.6898C92.471 20.5243 93.9588 21.9865 95.8166 23.066L96.8214 21.3368ZM93.0834 17.6661C92.1822 16.1362 91.7287 14.4491 91.7287 12.5833H89.7287C89.7287 14.7917 90.2706 16.8314 91.3601 18.6811L93.0834 17.6661ZM91.7287 12.5833C91.7287 10.6922 92.1832 9.00786 93.0803 7.5058L91.3632 6.48031C90.2696 8.31158 89.7287 10.3541 89.7287 12.5833H91.7287ZM93.0782 7.50928C94.0095 5.96414 95.2533 4.74113 96.8214 3.8299L95.8166 2.10065C93.9588 3.18017 92.471 4.64234 91.3653 6.47684L93.0782 7.50928ZM96.8214 3.8299C98.3755 2.92682 100.088 2.47222 101.979 2.47222V0.472222C99.7494 0.472222 97.6884 1.01299 95.8166 2.10065L96.8214 3.8299ZM101.979 2.47222C103.895 2.47222 105.605 2.92782 107.131 3.82691L108.146 2.10365C106.293 1.012 104.229 0.472222 101.979 0.472222V2.47222ZM107.136 3.8299C108.702 4.73996 109.932 5.96023 110.839 7.50059L112.563 6.48552C111.479 4.64625 110.001 3.18133 108.141 2.10065L107.136 3.8299ZM110.848 7.51451C111.765 9.01542 112.229 10.6966 112.229 12.5833H114.229C114.229 10.3497 113.674 8.30402 112.554 6.4716L110.848 7.51451ZM112.229 12.5833C112.229 14.4446 111.766 16.1286 110.844 17.6574L112.557 18.6898C113.673 16.839 114.229 14.7961 114.229 12.5833H112.229ZM110.839 17.6661C109.932 19.2064 108.702 20.4267 107.136 21.3368L108.141 23.066C110.001 21.9853 111.479 20.5204 112.563 18.6811L110.839 17.6661ZM107.131 21.3398C105.605 22.2388 103.895 22.6944 101.979 22.6944V24.6944C104.229 24.6944 106.293 24.1547 108.146 23.063L107.131 21.3398ZM101.979 19.2778C103.192 19.2778 104.312 18.9788 105.313 18.3672L104.27 16.6606C103.604 17.0675 102.849 17.2778 101.979 17.2778V19.2778ZM105.302 18.3734C106.306 17.7765 107.102 16.9683 107.675 15.9589L105.935 14.9717C105.536 15.6752 104.989 16.2328 104.28 16.6544L105.302 18.3734ZM107.671 15.9663C108.27 14.9305 108.569 13.7964 108.569 12.5833H106.569C106.569 13.4536 106.359 14.2408 105.94 14.9642L107.671 15.9663ZM108.569 12.5833C108.569 11.3514 108.272 10.2121 107.665 9.19031L105.946 10.2125C106.357 10.9037 106.569 11.6856 106.569 12.5833H108.569ZM107.675 9.20778C107.102 8.19839 106.306 7.39017 105.302 6.79324L104.28 8.51231C104.989 8.93391 105.536 9.49142 105.935 10.195L107.675 9.20778ZM105.313 6.79949C104.312 6.18784 103.192 5.88889 101.979 5.88889V7.88889C102.849 7.88889 103.604 8.09919 104.27 8.50606L105.313 6.79949ZM101.979 5.88889C100.766 5.88889 99.6387 6.18778 98.6204 6.79324L99.6426 8.51231C100.337 8.09925 101.108 7.88889 101.979 7.88889V5.88889ZM98.61 6.79949C97.6349 7.39539 96.8487 8.19691 96.2581 9.19031L97.9771 10.2125C98.405 9.49291 98.9614 8.92868 99.6529 8.50606L98.61 6.79949ZM96.2479 9.20778C95.6695 10.2269 95.3884 11.36 95.3884 12.5833H97.3884C97.3884 11.6771 97.5935 10.8889 97.9873 10.195L96.2479 9.20778ZM95.3884 12.5833C95.3884 13.7878 95.6714 14.9157 96.2424 15.949L97.9928 14.9816C97.5916 14.2556 97.3884 13.4622 97.3884 12.5833H95.3884ZM96.2581 15.9764C96.8487 16.9698 97.6349 17.7713 98.61 18.3672L99.6529 16.6606C98.9614 16.238 98.405 15.6738 97.9771 14.9542L96.2581 15.9764ZM98.6204 18.3734C99.6387 18.9789 100.766 19.2778 101.979 19.2778V17.2778C101.108 17.2778 100.337 17.0674 99.6426 16.6544L98.6204 18.3734Z" fill="#D4D4D4" mask="url(#path-1-outside-1_47_683)"/>
</svg>
