<svg width="259" height="108" viewBox="0 0 259 108" fill="none" xmlns="http://www.w3.org/2000/svg">
<g filter="url(#filter0_d_46_675)">
<mask id="path-1-inside-1_46_675" fill="white">
<path fill-rule="evenodd" clip-rule="evenodd" d="M19.5 0C11.2157 0 4.5 6.71574 4.5 15V84.6837C4.5 92.9679 11.2157 99.6837 19.5 99.6837H236.57C239.82 99.6837 242.829 98.6501 245.285 96.8937L252.635 99.9104C253.75 100.368 254.792 98.9956 254.425 97.5534L251.505 86.0924C251.548 85.6287 251.57 85.1587 251.57 84.6837V15C251.57 6.71573 244.855 0 236.57 0H19.5Z"/>
</mask>
<path fill-rule="evenodd" clip-rule="evenodd" d="M19.5 0C11.2157 0 4.5 6.71574 4.5 15V84.6837C4.5 92.9679 11.2157 99.6837 19.5 99.6837H236.57C239.82 99.6837 242.829 98.6501 245.285 96.8937L252.635 99.9104C253.75 100.368 254.792 98.9956 254.425 97.5534L251.505 86.0924C251.548 85.6287 251.57 85.1587 251.57 84.6837V15C251.57 6.71573 244.855 0 236.57 0H19.5Z" fill="url(#paint0_linear_46_675)"/>
<path d="M245.285 96.8937L245.475 96.4312L245.219 96.3262L244.994 96.487L245.285 96.8937ZM252.635 99.9104L252.446 100.373L252.446 100.373L252.635 99.9104ZM254.425 97.5534L254.909 97.4299L254.909 97.4299L254.425 97.5534ZM251.505 86.0924L251.007 86.0461L250.999 86.1321L251.02 86.2159L251.505 86.0924ZM5 15C5 6.99188 11.4919 0.5 19.5 0.5V-0.5C10.9396 -0.5 4 6.4396 4 15H5ZM5 84.6837V15H4V84.6837H5ZM19.5 99.1837C11.4919 99.1837 5 92.6918 5 84.6837H4C4 93.2441 10.9396 100.184 19.5 100.184V99.1837ZM236.57 99.1837H19.5V100.184H236.57V99.1837ZM244.994 96.487C242.62 98.1847 239.712 99.1837 236.57 99.1837V100.184C239.928 100.184 243.038 99.1155 245.576 97.3005L244.994 96.487ZM252.825 99.4478L245.475 96.4312L245.095 97.3563L252.446 100.373L252.825 99.4478ZM253.94 97.6768C254.088 98.2552 253.947 98.8011 253.688 99.142C253.434 99.4766 253.121 99.5693 252.825 99.4478L252.446 100.373C253.265 100.709 254.031 100.344 254.484 99.7466C254.933 99.1551 255.129 98.2938 254.909 97.4299L253.94 97.6768ZM251.02 86.2159L253.94 97.6768L254.909 97.4299L251.989 85.969L251.02 86.2159ZM251.07 84.6837C251.07 85.1432 251.049 85.5977 251.007 86.0461L252.003 86.1388C252.047 85.6596 252.07 85.1743 252.07 84.6837H251.07ZM251.07 15V84.6837H252.07V15H251.07ZM236.57 0.5C244.578 0.5 251.07 6.99187 251.07 15H252.07C252.07 6.43959 245.131 -0.5 236.57 -0.5V0.5ZM19.5 0.5H236.57V-0.5H19.5V0.5Z" fill="#E2E2E2" mask="url(#path-1-inside-1_46_675)"/>
<path d="M57.1141 69.1111C53.8178 69.1111 50.7992 68.3148 48.0585 66.7222C45.3178 65.1296 43.1326 62.9815 41.5029 60.2778C39.9104 57.5741 39.1141 54.5926 39.1141 51.3333C39.1141 48.037 39.9104 45.0556 41.5029 42.3889C43.1326 39.6852 45.3178 37.537 48.0585 35.9444C50.7992 34.3519 53.8178 33.5556 57.1141 33.5556C59.4104 33.5556 61.577 33.9444 63.6141 34.7222C65.6881 35.463 67.5215 36.5741 69.1141 38.0556L66.6141 47.8889C65.6881 46.3704 64.4474 45.0556 62.8918 43.9444C61.3733 42.7963 59.577 42.2222 57.5029 42.2222C55.7622 42.2222 54.2067 42.6296 52.8363 43.4444C51.4659 44.2593 50.3918 45.3519 49.6141 46.7222C48.8363 48.0926 48.4474 49.6296 48.4474 51.3333C48.4474 53 48.8363 54.537 49.6141 55.9444C50.3918 57.3148 51.4659 58.4074 52.8363 59.2222C54.2067 60.037 55.7622 60.4444 57.5029 60.4444C59.577 60.4444 61.3733 59.8889 62.8918 58.7778C64.4474 57.6296 65.6881 56.2963 66.6141 54.7778L69.1141 64.6111C67.5215 66.0926 65.6881 67.2222 63.6141 68C61.577 68.7407 59.4104 69.1111 57.1141 69.1111ZM89.8734 69.1111C86.5771 69.1111 83.5586 68.3148 80.8179 66.7222C78.0771 65.1296 75.892 62.9815 74.2623 60.2778C72.6697 57.5741 71.8734 54.5926 71.8734 51.3333C71.8734 48.037 72.6697 45.0556 74.2623 42.3889C75.892 39.6852 78.0771 37.537 80.8179 35.9444C83.5586 34.3519 86.5771 33.5556 89.8734 33.5556C93.2068 33.5556 96.2253 34.3519 98.929 35.9444C101.67 37.537 103.836 39.6852 105.429 42.3889C107.059 45.0556 107.873 48.037 107.873 51.3333C107.873 54.5926 107.059 57.5741 105.429 60.2778C103.836 62.9815 101.67 65.1296 98.929 66.7222C96.2253 68.3148 93.2068 69.1111 89.8734 69.1111ZM89.8734 60.4444C91.5401 60.4444 93.0401 60.037 94.3734 59.2222C95.7438 58.4074 96.8179 57.3148 97.5957 55.9444C98.4105 54.537 98.8179 53 98.8179 51.3333C98.8179 49.6296 98.4105 48.0926 97.5957 46.7222C96.8179 45.3519 95.7438 44.2593 94.3734 43.4444C93.0401 42.6296 91.5401 42.2222 89.8734 42.2222C88.2068 42.2222 86.6883 42.6296 85.3179 43.4444C83.9845 44.2593 82.9105 45.3519 82.0957 46.7222C81.3179 48.0926 80.929 49.6296 80.929 51.3333C80.929 53 81.3179 54.537 82.0957 55.9444C82.9105 57.3148 83.9845 58.4074 85.3179 59.2222C86.6883 60.037 88.2068 60.4444 89.8734 60.4444ZM112.94 68V34.6667H121.607V38.3333C122.792 36.7778 124.255 35.5926 125.996 34.7778C127.736 33.963 129.607 33.5556 131.607 33.5556C133.977 33.5556 136.181 34.1296 138.218 35.2778C140.292 36.3889 141.959 38.037 143.218 40.2222C144.514 42.3704 145.162 44.9815 145.162 48.0556V68H135.496V49.3333C135.496 47.4815 134.94 45.8333 133.829 44.3889C132.718 42.9444 131.125 42.2222 129.051 42.2222C127.385 42.2222 125.885 42.7963 124.551 43.9444C123.255 45.0556 122.607 46.8148 122.607 49.2222V68H112.94ZM164.55 69.6667L146.272 34.6667H156.995L162.217 45.3889C162.698 46.3148 163.143 47.2407 163.55 48.1667C163.958 49.0556 164.365 50.0741 164.772 51.2222C165.18 50.0741 165.587 49.0556 165.995 48.1667C166.402 47.2407 166.846 46.3148 167.328 45.3889L172.55 34.6667H182.828L164.55 69.6667ZM200.886 69.1111C197.59 69.1111 194.571 68.3148 191.83 66.7222C189.09 65.1296 186.904 62.9815 185.275 60.2778C183.682 57.5741 182.886 54.5926 182.886 51.3333C182.886 48.037 183.682 45.0556 185.275 42.3889C186.904 39.6852 189.09 37.537 191.83 35.9444C194.571 34.3519 197.59 33.5556 200.886 33.5556C204.219 33.5556 207.238 34.3519 209.941 35.9444C212.682 37.537 214.849 39.6852 216.441 42.3889C218.071 45.0556 218.886 48.037 218.886 51.3333C218.886 54.5926 218.071 57.5741 216.441 60.2778C214.849 62.9815 212.682 65.1296 209.941 66.7222C207.238 68.3148 204.219 69.1111 200.886 69.1111ZM200.886 60.4444C202.553 60.4444 204.053 60.037 205.386 59.2222C206.756 58.4074 207.83 57.3148 208.608 55.9444C209.423 54.537 209.83 53 209.83 51.3333C209.83 49.6296 209.423 48.0926 208.608 46.7222C207.83 45.3519 206.756 44.2593 205.386 43.4444C204.053 42.6296 202.553 42.2222 200.886 42.2222C199.219 42.2222 197.701 42.6296 196.33 43.4444C194.997 44.2593 193.923 45.3519 193.108 46.7222C192.33 48.0926 191.941 49.6296 191.941 51.3333C191.941 53 192.33 54.537 193.108 55.9444C193.923 57.3148 194.997 58.4074 196.33 59.2222C197.701 60.037 199.219 60.4444 200.886 60.4444Z" fill="#312E81"/>
</g>
<defs>
<filter id="filter0_d_46_675" x="0.5" y="0" width="258" height="108" filterUnits="userSpaceOnUse" color-interpolation-filters="sRGB">
<feFlood flood-opacity="0" result="BackgroundImageFix"/>
<feColorMatrix in="SourceAlpha" type="matrix" values="0 0 0 0 0 0 0 0 0 0 0 0 0 0 0 0 0 0 127 0" result="hardAlpha"/>
<feOffset dy="4"/>
<feGaussianBlur stdDeviation="2"/>
<feComposite in2="hardAlpha" operator="out"/>
<feColorMatrix type="matrix" values="0 0 0 0 0 0 0 0 0 0 0 0 0 0 0 0 0 0 0.25 0"/>
<feBlend mode="normal" in2="BackgroundImageFix" result="effect1_dropShadow_46_675"/>
<feBlend mode="normal" in="SourceGraphic" in2="effect1_dropShadow_46_675" result="shape"/>
</filter>
<linearGradient id="paint0_linear_46_675" x1="129.5" y1="0" x2="129.5" y2="100" gradientUnits="userSpaceOnUse">
<stop stop-color="#F7FBFF"/>
<stop offset="0.25" stop-color="#EDF1F8"/>
<stop offset="0.495028" stop-color="#E1E5F0"/>
<stop offset="0.75" stop-color="#E5E8F3"/>
<stop offset="1" stop-color="#F7FBFF"/>
</linearGradient>
</defs>
</svg>
